<svg id="Ebene_1" data-name="Ebene 1" xmlns="http://www.w3.org/2000/svg" viewBox="0 0 279.2126 43.08661" width="284.45669" height="45.63778"><path d="M23.7242.98608V16.74085H11.24973V.98608H.29764v41.114H11.24973V26.17H23.7242v15.93H34.67629V.98608ZM53.007,42.80306c9.54656,0,15.286-4.86114,15.286-12.94325,0-5.68145-2.57689-9.13659-8.84357-11.77236l-5.56415-2.34268c-2.69374-1.17135-3.51357-1.99121-3.51357-3.51357,0-1.81592,1.81544-3.0457,4.6265-3.0457,4.3928,0,7.96528,2.167,9.07772,2.167a1.19911,1.19911,0,0,0,1.23027-.87827L67.76577,3.4461A28.18933,28.18933,0,0,0,54.76408.28355c-9.13666,0-15.11026,4.86066-15.11026,12.0645,0,5.62255,2.51845,9.31235,8.19947,11.83031l6.55926,2.92838c2.167.93715,3.04572,1.93276,3.04572,3.39718,0,2.22537-1.64018,3.3383-4.86116,3.3383-5.03691,0-9.37081-2.28428-10.308-2.28428a1.38848,1.38848,0,0,0-1.3471.9956L38.9508,39.87469A37.556,37.556,0,0,0,53.007,42.80306Zm20.73236-.703h26.35492V34.19371c0-1.0545-.46835-1.52284-1.52285-1.52284H84.691V.98608H73.73939v41.114Zm45.68128.703q17.13065,0,17.10144-17.98012V.98608H125.57049V23.82734c0,6.735-1.69859,9.31187-6.14982,9.31187s-6.14937-2.57687-6.14937-9.31187V.98608H102.31922V24.82294q0,18.0091,17.10145,17.98012Z"/><path d="M147.69033,42.10006h9.6007c.40093,0,.66834-.16056.66834-.64172V39.82719a.58666.58666,0,0,0-.66834-.64219h-6.84619V24.28951c0-.53485-.18714-.722-.69538-.722h-2.166c-.428,0-.64222.24082-.64222.69539V41.35147c0,.588.26745.74859.74909.74859Zm16.68724.3211a6.85283,6.85283,0,0,0,4.30542-1.65822l.02658.80227c.02711.37429.21422.53485.64174.53485h1.79218c.48117,0,.66832-.21376.66832-.69539v-11.847c0-.4275-.21376-.61464-.6954-.61464h-1.92517c-.45456,0-.66881.18714-.66881.61464v8.69153A5.46206,5.46206,0,0,1,165.367,39.613c-1.39079,0-2.00594-.77521-2.00594-2.62057V29.55772c0-.4275-.18714-.61464-.66832-.61464h-1.899c-.48115,0-.722.21374-.722.61464v7.99613c0,3.18249,1.4711,4.86731,4.30588,4.86731Zm19.495-2.72791h-5.77649l5.88338-8.531a1.37,1.37,0,0,0,.26742-.88207v-.77567c0-.294-.10689-.56144-.61508-.56144h-8.58423c-.34772,0-.50828.21374-.50828.56144v1.15c0,.56146.10686.69541.61512.69541H180.102l-5.77649,8.5039a1.29826,1.29826,0,0,0-.26739.90914v.6954a.5662.5662,0,0,0,.64171.64172h9.19934a.46439.46439,0,0,0,.50825-.50825v-1.444c0-.34771-.21376-.45457-.53487-.45457Zm8.37047,2.72791a11.91709,11.91709,0,0,0,4.57283-.85595.59449.59449,0,0,0,.37432-.80227l-.37432-1.39031c-.08027-.32111-.294-.40139-.69539-.24083a8.54075,8.54075,0,0,1-3.316.66831,3.74014,3.74014,0,0,1-3.87744-3.5297h7.94249c.69539,0,.88256-.16056.88256-.80228v-.40138c0-3.98429-2.1128-6.44476-5.5627-6.44476-4.01141,0-6.71228,2.75451-6.71228,6.84614,0,4.30538,2.56739,6.953,6.76592,6.953ZM188.98022,34.131a3.11483,3.11483,0,0,1,3.022-2.99534,2.51126,2.51126,0,0,1,2.51367,2.70085V34.131Zm11.95387,7.96906h1.97932c.42752,0,.64174-.21376.64174-.66833V32.8205a3.53432,3.53432,0,0,1,2.594-1.28346c.21379,0,.45459.02661.7486.05321.32111.05366.4817-.05321.53487-.40091l.2408-1.92564a.49392.49392,0,0,0-.10686-.45457,1.59324,1.59324,0,0,0-.88257-.18714,3.97115,3.97115,0,0,0-3.28934,1.872l-.02661-.96283c0-.428-.2142-.588-.66882-.588h-1.738c-.48164,0-.6954.18714-.6954.69492V41.43173a.58374.58374,0,0,0,.66832.66833Zm9.25254,0H212.166c.48118,0,.66832-.21376.66832-.66833V32.76682a5.52344,5.52344,0,0,1,3.18251-1.33713c1.41741,0,2.05914.80228,2.05914,2.59445v7.38053c0,.48163.21378.69539.66832.69539h1.97932c.45459,0,.64173-.21376.64173-.69539V33.46221c0-3.182-1.47107-4.84022-4.30588-4.84022a6.94993,6.94993,0,0,0-4.38564,1.6582l-.02664-.77567c-.02659-.40136-.24084-.56144-.66881-.56144h-1.76461a.58406.58406,0,0,0-.66881.66832V41.45834a.59054.59054,0,0,0,.64173.64172Z"/><path d="M147.69033,19.51862h2.08573c.45456,0,.66878-.18714.66878-.66832V11.36242h7.59479V18.8503c0,.48118.21376.66832.722.66832h2.13941c.45456,0,.64173-.18714.64173-.66832V1.65487c0-.50824-.21376-.66879-.64173-.66879h-2.13941c-.45457,0-.722.18715-.722.66879V8.474h-7.59479V1.65487c0-.50824-.24079-.66879-.66878-.66879h-2.08573c-.428,0-.74909.18715-.74909.66879V18.8503c0,.48118.24084.66832.74909.66832Zm22.838.3211c3.9848,0,6.60583-2.75451,6.60583-6.92642,0-4.33246-2.38023-6.87277-6.4453-6.87277-4.01139,0-6.63195,2.70086-6.63195,6.84617,0,4.35905,2.40684,6.953,6.47142,6.953Zm.02708-2.56737c-2.00594,0-3.10226-1.57793-3.10226-4.43933,0-2.67424,1.1766-4.22512,3.20912-4.22512,1.97886,0,3.07516,1.52428,3.07516,4.3054,0,2.75451-1.17658,4.35905-3.182,4.35905Zm15.05561,2.56737a8.91711,8.91711,0,0,0,3.93111-.80227c.40089-.18715.45456-.3477.32061-.80227l-.37431-1.33713c-.08028-.24082-.26739-.32109-.58853-.21422a6.63008,6.63008,0,0,1-2.83432.61512c-2.21966,0-3.53021-1.63114-3.53021-4.41225,0-2.70132,1.36375-4.2788,3.66369-4.2788a5.78887,5.78887,0,0,1,2.594.588c.32108.18716.53481.10736.61508-.24034l.3477-1.44448c.08028-.42749.02665-.588-.26742-.722a9.02571,9.02571,0,0,0-3.63707-.74861c-4.11825,0-6.71222,2.72793-6.71222,7.00673s2.38022,6.79246,6.47188,6.79246Zm7.24706-.3211h2.08573c.37431,0,.58853-.21374.58853-.66832V10.18538a5.66908,5.66908,0,0,1,3.26232-1.33712c1.63163,0,2.03253,1.12336,2.03253,2.59444v7.4076c0,.48118.21372.66832.69539.66832h1.89859c.48163,0,.69539-.18714.69539-.66832V10.88077c0-2.94166-1.25685-4.84024-4.30542-4.84024a7.11873,7.11873,0,0,0-4.2788,1.55088V1.60121c0-.48118-.24081-.61513-.66878-.61513H192.965c-.428,0-.722.16055-.722.61513V18.8769a.55894.55894,0,0,0,.61511.64172Zm18.0776.3211c3.20909,0,5.3219-1.65821,5.3219-4.19851a3.70349,3.70349,0,0,0-2.5674-3.47652l-2.46-.98941c-.93623-.37479-1.28393-.74908-1.28393-1.3908,0-.74859.66878-1.25684,1.65821-1.25684a6.22991,6.22991,0,0,1,2.94167.64171.4.4,0,0,0,.64174-.24082l.48117-1.444c.10739-.37429.0537-.50825-.294-.66831a9.94,9.94,0,0,0-3.93111-.80227c-2.86139,0-4.8673,1.57746-4.8673,3.82421a3.84932,3.84932,0,0,0,2.7545,3.66366l2.13942.80227c1.20365.45457,1.63162.88254,1.63162,1.60455,0,.88254-.80228,1.444-2.08621,1.444a8.27967,8.27967,0,0,1-3.36965-.856c-.32062-.13346-.53484-.0532-.64171.26743l-.48117,1.49767a.46578.46578,0,0,0,.294.64172,9.56435,9.56435,0,0,0,4.11828.93622Zm13.47814,0a8.91711,8.91711,0,0,0,3.93111-.80227c.40136-.18715.45456-.3477.32111-.80227l-.37429-1.33713c-.0803-.24082-.26747-.32109-.58856-.21422a6.63071,6.63071,0,0,1-2.83478.61512c-2.21966,0-3.52974-1.63114-3.52974-4.41225,0-2.70132,1.36371-4.2788,3.66365-4.2788a5.78986,5.78986,0,0,1,2.594.588c.32111.18716.53487.10736.61515-.24034l.3477-1.44448c.08027-.42749.02658-.588-.2674-.722a9.02769,9.02769,0,0,0-3.63712-.74861c-4.11822,0-6.71223,2.72793-6.71223,7.00673s2.37976,6.79246,6.47142,6.79246Zm7.24706-.3211h2.08622c.37428,0,.588-.21374.588-.66832V10.18538A5.67155,5.67155,0,0,1,237.598,8.84826c1.63119,0,2.03255,1.12336,2.03255,2.59444v7.4076c0,.48118.21373.66832.6949.66832h1.899c.48118,0,.6954-.18714.6954-.66832V10.88077c0-2.94166-1.25685-4.84024-4.30586-4.84024a7.11881,7.11881,0,0,0-4.27883,1.55088V1.60121c0-.48118-.24034-.61513-.66832-.61513h-1.89858c-.428,0-.72244.16055-.72244.61513V18.8769a.55911.55911,0,0,0,.61508.64172Zm18.506.3211a6.85194,6.85194,0,0,0,4.30545-1.65821l.02658.80227c.02708.3743.21422.53484.6422.53484h1.79172c.48117,0,.66834-.21374.66834-.69539V6.97628c0-.42749-.21378-.61464-.69545-.61464H254.9806c-.45456,0-.66878.18715-.66878.61464v8.69153a5.46226,5.46226,0,0,1-3.15546,1.36373c-1.39079,0-2.00588-.7752-2.00588-2.62056V6.97628c0-.42749-.18717-.61464-.66835-.61464h-1.89858c-.48164,0-.72247.21374-.72247.61464v7.99614c0,3.18249,1.47107,4.8673,4.30585,4.8673Zm11.25848-.3211h2.08578c.37422,0,.58847-.21374.58847-.66832V1.60121c0-.48118-.2408-.61513-.66878-.61513h-1.89855c-.428,0-.722.16055-.722.61513V18.8769a.55913.55913,0,0,0,.61512.64172Zm11.98048.3211a11.91752,11.91752,0,0,0,4.57284-.85594.59447.59447,0,0,0,.37428-.80227l-.37428-1.39033c-.08028-.3211-.294-.40136-.69542-.24081a8.54073,8.54073,0,0,1-3.316.66832,3.7402,3.7402,0,0,1-3.87747-3.52972h7.94251c.6954,0,.88257-.16055.88257-.80227v-.40137c0-3.98429-2.11283-6.4448-5.56276-6.4448-4.01138,0-6.71222,2.75453-6.71222,6.84617,0,4.30539,2.56739,6.953,6.76591,6.953Zm-3.26278-8.29014a3.11445,3.11445,0,0,1,3.022-2.99534,2.51131,2.51131,0,0,1,2.51373,2.70084v.2945Z"/></svg>