<?xml version="1.0" encoding="UTF-8" standalone="no"?>
<!-- Generator: Adobe Illustrator 17.1.0, SVG Export Plug-In . SVG Version: 6.00 Build 0)  -->

<svg
   version="1.1"
   id="Layer_1"
   x="0px"
   y="0px"
   viewBox="0 0 32 32"
   xml:space="preserve"
   sodipodi:docname="icon_fdrop.svg"
   inkscape:version="1.1 (c4e8f9ed74, 2021-05-24)"
   xmlns:inkscape="http://www.inkscape.org/namespaces/inkscape"
   xmlns:sodipodi="http://sodipodi.sourceforge.net/DTD/sodipodi-0.dtd"
   xmlns:xlink="http://www.w3.org/1999/xlink"
   xmlns="http://www.w3.org/2000/svg"
   xmlns:svg="http://www.w3.org/2000/svg"
   xmlns:rdf="http://www.w3.org/1999/02/22-rdf-syntax-ns#"
   xmlns:cc="http://creativecommons.org/ns#"
   xmlns:dc="http://purl.org/dc/elements/1.1/"><metadata
     id="metadata28"><rdf:RDF><cc:Work
         rdf:about=""><dc:format>image/svg+xml</dc:format><dc:type
           rdf:resource="http://purl.org/dc/dcmitype/StillImage" /></cc:Work></rdf:RDF></metadata><defs
     id="defs26" /><sodipodi:namedview
     pagecolor="#ffffff"
     bordercolor="#666666"
     borderopacity="1"
     objecttolerance="10"
     gridtolerance="10"
     guidetolerance="10"
     inkscape:pageopacity="0"
     inkscape:pageshadow="2"
     inkscape:window-width="3840"
     inkscape:window-height="2091"
     id="namedview24"
     showgrid="false"
     inkscape:zoom="7.375"
     inkscape:cx="12.677966"
     inkscape:cy="16"
     inkscape:window-x="0"
     inkscape:window-y="0"
     inkscape:window-maximized="1"
     inkscape:current-layer="Layer_1"
     inkscape:pagecheckerboard="0" /><g
     id="g20"><rect
       fill="none"
       width="32"
       height="32"
       id="rect2" /><g
       id="g16"><g
         id="g14"><g
           id="g12"><defs
             id="defs5"><rect
               id="SVGID_1_"
               width="32"
               height="32" /></defs><clipPath
             id="SVGID_2_"><use
               xlink:href="#SVGID_1_"
               overflow="visible"
               id="use7" /></clipPath><path
             clip-path="url(#SVGID_2_)"
             fill="#6d003b"
             d="M6,24h20V10H6V24z M27,26H5c-0.6,0-1-0.4-1-1V6h7v2h16c0.6,0,1,0.4,1,1v16      C28,25.6,27.6,26,27,26"
             id="path10" /></g></g></g><rect
       x="6"
       y="10"
       fill="#FFFFFF"
       width="20"
       height="14"
       id="rect18" /></g><path
     id="flowRoot3192"
     fill="#6d003b"
     d="M8.1,12.7l4.8,4.3l-4.8,4.3V12.7z M23,11.9l-5.9,5.3c-0.3,0.3-0.7,0.4-1.1,0.4  c-0.5,0-0.8-0.1-1.2-0.4L9,11.9H23z M24,21.3L19.2,17l4.8-4.3V21.3z M9,22.1l4.8-4.3L14,18c0.6,0.5,1.2,0.7,2,0.7  c0.8,0,1.5-0.2,2-0.7l0.2-0.2l4.8,4.3H9z M6.8,23.3h18.5V10.7H6.8V23.3z"
     style="fill:#6d003b;fill-opacity:1" /><path
     style="fill:none;fill-rule:evenodd;stroke:#6d003b;stroke-width:2;stroke-linecap:butt;stroke-linejoin:miter;stroke-miterlimit:4;stroke-dasharray:none;stroke-opacity:1"
     d="M 0.8135593,27.932203 29.349426,7.2595536 31.322034,5.8305085"
     id="path4507"
     inkscape:connector-curvature="0"
     sodipodi:nodetypes="ccc" /><path
     style="fill:#6d003b;fill-opacity:1;fill-rule:evenodd;stroke:#6d003b;stroke-width:2;stroke-linecap:butt;stroke-linejoin:miter;stroke-miterlimit:4;stroke-dasharray:none;stroke-opacity:1"
     d="M 0.74576259,5.7627118 3.233842,7.5651871 27.86786,25.411164 l 3.386378,2.453243"
     id="path4507-3"
     inkscape:connector-curvature="0"
     sodipodi:nodetypes="cccc" /></svg>
